<svg width="38" height="38" viewBox="0 0 38 38" fill="none" xmlns="http://www.w3.org/2000/svg">
<path d="M19.3948 7.31817C23.0995 7.31817 23.5388 7.33242 25.0019 7.4005C26.3539 7.46383 27.0893 7.69658 27.578 7.89133C28.2255 8.14942 28.688 8.45817 29.1736 8.95692C29.6593 9.45567 29.9599 9.93067 30.2112 10.5957C30.4008 11.0976 30.6274 11.8528 30.6891 13.2414C30.7554 14.744 30.7693 15.1953 30.7693 19C30.7693 22.8048 30.7554 23.256 30.6891 24.7586C30.6274 26.1472 30.4008 26.9024 30.2112 27.4043C29.9599 28.0693 29.6593 28.5443 29.1736 29.0431C28.688 29.5418 28.2255 29.8506 27.578 30.1087C27.0893 30.3034 26.3539 30.5362 25.0019 30.5995C23.5388 30.6676 23.101 30.6818 19.3948 30.6818C15.6887 30.6818 15.2508 30.6676 13.7878 30.5995C12.4358 30.5362 11.7004 30.3034 11.2117 30.1087C10.5642 29.8506 10.1017 29.5418 9.61604 29.0431C9.13042 28.5443 8.82979 28.0693 8.5785 27.4043C8.38888 26.9024 8.16225 26.1472 8.10059 24.7586C8.03429 23.256 8.02042 22.8048 8.02042 19C8.02042 15.1953 8.03429 14.744 8.10059 13.2414C8.16225 11.8528 8.38888 11.0976 8.5785 10.5957C8.82979 9.93067 9.13042 9.45567 9.61604 8.95692C10.1017 8.45817 10.5642 8.14942 11.2117 7.89133C11.7004 7.69658 12.4358 7.46383 13.7878 7.4005C15.2508 7.33242 15.6902 7.31817 19.3948 7.31817ZM19.3948 4.75C15.627 4.75 15.1537 4.76583 13.6737 4.8355C12.1968 4.90517 11.1885 5.14583 10.3067 5.49733C9.39404 5.8615 8.62013 6.34917 7.84929 7.14242C7.07846 7.93408 6.60363 8.72892 6.24904 9.66625C5.90525 10.5719 5.67092 11.6074 5.60309 13.1242C5.53525 14.6442 5.51984 15.1303 5.51984 19C5.51984 22.8697 5.53525 23.3558 5.60309 24.8758C5.67092 26.3926 5.90525 27.4281 6.2475 28.3353C6.60209 29.2727 7.07692 30.0675 7.84775 30.8592C8.61859 31.6508 9.3925 32.1385 10.3052 32.5027C11.187 32.8542 12.1968 33.0964 13.6737 33.1645C15.1537 33.2342 15.627 33.25 19.3948 33.25C23.1627 33.25 23.636 33.2342 25.116 33.1645C26.5929 33.0948 27.6011 32.8542 28.4845 32.5027C29.3972 32.1385 30.1711 31.6508 30.9419 30.8592C31.7128 30.0675 32.1876 29.2727 32.5422 28.3353C32.8844 27.4297 33.1203 26.3926 33.1866 24.8758C33.2544 23.3558 33.2698 22.8697 33.2698 19C33.2698 15.1303 33.2544 14.6442 33.1866 13.1242C33.1188 11.6074 32.8844 10.5719 32.5422 9.66467C32.1876 8.72733 31.7128 7.9325 30.9419 7.14083C30.1711 6.34917 29.3972 5.8615 28.4845 5.49733C27.6027 5.14583 26.5929 4.90358 25.116 4.8355C23.636 4.76583 23.1627 4.75 19.3948 4.75ZM19.3948 11.6818C15.4605 11.6818 12.2693 14.9578 12.2693 19C12.2693 23.0423 15.4605 26.3182 19.3948 26.3182C23.3292 26.3182 26.5204 23.0423 26.5204 19C26.5204 14.9578 23.3292 11.6818 19.3948 11.6818ZM19.3948 23.75C16.8403 23.75 14.7698 21.6236 14.7698 19C14.7698 16.3764 16.8403 14.25 19.3948 14.25C21.9494 14.25 24.0198 16.3764 24.0198 19C24.0198 21.6236 21.9494 23.75 19.3948 23.75ZM26.801 9.68367C25.8822 9.68367 25.136 10.45 25.136 11.3937C25.136 12.3373 25.8822 13.1037 26.801 13.1037C27.7198 13.1037 28.466 12.3373 28.466 11.3937C28.466 10.45 27.7214 9.68367 26.801 9.68367Z" fill="white"/>
</svg>
